HIERARCHY
ROOT hip
{
  OFFSET 0 0 0
  CHANNELS 6 Xposition Yposition Zposition Zrotation Yrotation Xrotation
  JOINT abdomen
  {
    OFFSET 0 20.6881 -0.73152
    CHANNELS 3 Zrotation Xrotation Yrotation
    JOINT chest
    {
      OFFSET 0 11.7043 -0.48768
      CHANNELS 3 Zrotation Xrotation Yrotation
      JOINT neck
      {
        OFFSET 0 22.1894 -2.19456
        CHANNELS 3 Zrotation Xrotation Yrotation
        JOINT head
        {
          OFFSET -0.24384 7.07133 1.2192
          CHANNELS 3 Zrotation Xrotation Yrotation
          JOINT leftEye
          {
            OFFSET 4.14528 8.04674 8.04672
            CHANNELS 3 Zrotation Xrotation Yrotation
            End Site
            {
              OFFSET 1 0 0
            }
          }
          JOINT rightEye
          {
            OFFSET -3.6576 8.04674 8.04672
            CHANNELS 3 Zrotation Xrotation Yrotation
            End Site
            {
              OFFSET 1 0 0
            }
          }
        }
      }
      JOINT rCollar
      {
        OFFSET -2.68224 19.2634 -4.8768
        CHANNELS 3 Zrotation Xrotation Yrotation
        JOINT rShldr
        {
          OFFSET -8.77824 -1.95073 1.46304
          CHANNELS 3 Zrotation Xrotation Yrotation
          JOINT rForeArm
          {
            OFFSET -28.1742 -1.7115 0.48768
            CHANNELS 3 Zrotation Xrotation Yrotation
            JOINT rHand
            {
              OFFSET -22.5879 0.773209 7.07136
              CHANNELS 3 Zrotation Xrotation Yrotation
              JOINT rThumb1
              {
                OFFSET -1.2192 -0.487915 3.41376
                CHANNELS 3 Zrotation Xrotation Yrotation
                JOINT rThumb2
                {
                  OFFSET -3.37035 -0.52449 3.41376
                  CHANNELS 3 Zrotation Xrotation Yrotation
                  End Site
                  {
                    OFFSET -1.78271 -1.18214 1.43049
                  }
                }
              }
              JOINT rIndex1
              {
                OFFSET -7.75947 0.938293 5.60832
                CHANNELS 3 Zrotation Xrotation Yrotation
                JOINT rIndex2
                {
                  OFFSET -2.54057 -0.884171 1.56538
                  CHANNELS 3 Zrotation Xrotation Yrotation
                  End Site
                  {
                    OFFSET -1.62519 -0.234802 1.16502
                  }
                }
              }
              JOINT rMid1
              {
                OFFSET -8.24714 1.18213 3.41376
                CHANNELS 3 Zrotation Xrotation Yrotation
                JOINT rMid2
                {
                  OFFSET -3.10165 -0.590103 1.0647
                  CHANNELS 3 Zrotation Xrotation Yrotation
                  End Site
                  {
                    OFFSET -2.48547 -0.328903 0.83742
                  }
                }
              }
              JOINT rRing1
              {
                OFFSET -8.82822 0.546677 1.51678
                CHANNELS 3 Zrotation Xrotation Yrotation
                JOINT rRing2
                {
                  OFFSET -2.60934 -0.819778 -0.0198488
                  CHANNELS 3 Zrotation Xrotation Yrotation
                  End Site
                  {
                    OFFSET -2.33842 -0.294052 0.168128
                  }
                }
              }
              JOINT rPinky1
              {
                OFFSET -8.27202 -0.0477905 -0.4584
                CHANNELS 3 Zrotation Xrotation Yrotation
                JOINT rPinky2
                {
                  OFFSET -1.82734 -0.647385 -0.700984
                  CHANNELS 3 Zrotation Xrotation Yrotation
                  End Site
                  {
                    OFFSET -1.69225 -0.51767 -0.607171
                  }
                }
              }
            }
          }
        }
      }
      JOINT lCollar
      {
        OFFSET 2.68224 19.2634 -4.8768
        CHANNELS 3 Zrotation Xrotation Yrotation
        JOINT lShldr
        {
          OFFSET 8.77824 -1.95073 1.46304
          CHANNELS 3 Zrotation Xrotation Yrotation
          JOINT lForeArm
          {
            OFFSET 28.1742 -1.7115 0.48768
            CHANNELS 3 Zrotation Xrotation Yrotation
            JOINT lHand
            {
              OFFSET 22.5879 0.773209 7.07136
              CHANNELS 3 Zrotation Xrotation Yrotation
              JOINT lThumb1
              {
                OFFSET 1.2192 -0.487915 3.41376
                CHANNELS 3 Zrotation Xrotation Yrotation
                JOINT lThumb2
                {
                  OFFSET 3.37035 -0.52449 3.41376
                  CHANNELS 3 Zrotation Xrotation Yrotation
                  End Site
                  {
                    OFFSET 1.78271 -1.18214 1.43049
                  }
                }
              }
              JOINT lIndex1
              {
                OFFSET 7.75947 0.938293 5.60832
                CHANNELS 3 Zrotation Xrotation Yrotation
                JOINT lIndex2
                {
                  OFFSET 2.54057 -0.884171 1.56538
                  CHANNELS 3 Zrotation Xrotation Yrotation
                  End Site
                  {
                    OFFSET 1.62519 -0.234802 1.16502
                  }
                }
              }
              JOINT lMid1
              {
                OFFSET 8.24714 1.18213 3.41376
                CHANNELS 3 Zrotation Xrotation Yrotation
                JOINT lMid2
                {
                  OFFSET 3.10165 -0.590103 1.0647
                  CHANNELS 3 Zrotation Xrotation Yrotation
                  End Site
                  {
                    OFFSET 2.48547 -0.328903 0.83742
                  }
                }
              }
              JOINT lRing1
              {
                OFFSET 8.82822 0.546677 1.51678
                CHANNELS 3 Zrotation Xrotation Yrotation
                JOINT lRing2
                {
                  OFFSET 2.60934 -0.819778 -0.0198488
                  CHANNELS 3 Zrotation Xrotation Yrotation
                  End Site
                  {
                    OFFSET 2.33842 -0.294052 0.168128
                  }
                }
              }
              JOINT lPinky1
              {
                OFFSET 8.27202 -0.0477905 -0.4584
                CHANNELS 3 Zrotation Xrotation Yrotation
                JOINT lPinky2
                {
                  OFFSET 1.82734 -0.647385 -0.700984
                  CHANNELS 3 Zrotation Xrotation Yrotation
                  End Site
                  {
                    OFFSET 1.69225 -0.51767 -0.607171
                  }
                }
              }
            }
          }
        }
      }
    }
  }
  JOINT rButtock
  {
    OFFSET -8.77824 4.35084 1.2192
    CHANNELS 3 Zrotation Xrotation Yrotation
    JOINT rThigh
    {
      OFFSET 0 -1.70687 -2.19456
      CHANNELS 3 Zrotation Xrotation Yrotation
      JOINT rShin
      {
        OFFSET 0 -36.8199 0.73152
        CHANNELS 3 Zrotation Xrotation Yrotation
        JOINT rFoot
        {
          OFFSET 0.73152 -45.1104 -5.12064
          CHANNELS 3 Zrotation Xrotation Yrotation
          End Site
          {
            OFFSET -1.1221 -3.69964 12.103
          }
        }
      }
    }
  }
  JOINT lButtock
  {
    OFFSET 8.77824 4.35084 1.2192
    CHANNELS 3 Zrotation Xrotation Yrotation
    JOINT lThigh
    {
      OFFSET 0 -1.70687 -2.19456
      CHANNELS 3 Zrotation Xrotation Yrotation
      JOINT lShin
      {
        OFFSET 0 -36.8199 0.73152
        CHANNELS 3 Zrotation Xrotation Yrotation
        JOINT lFoot
        {
          OFFSET -0.73152 -45.1104 -5.12064
          CHANNELS 3 Zrotation Xrotation Yrotation
          End Site
          {
            OFFSET 1.1221 -3.69964 12.103
          }
        }
      }
    }
  }
}
MOTION
Frames:	5
Frame Time:	0.00833333
38.2942 83.8832 -18.556 -362.569 24.4207 6.6239 -0.594172 12.0186 2.10162 -0.94033 -5.00606 0.514514 -0.351708 7.33294 7.87047 16.9425 -43.2436 23.9601 -0.0 0.0 0.0 -0.0 0.0 0.0 3.15717e-13 -5.40607e-14 -1.10032e-12 2.86435 40.3413 -12.0419 -9.99755 -4.13989 17.7969 -0.673042 -22.6425 -3.36083 4.28189e-09 1.96463e-09 -9.88273e-09 7.54111e-09 3.15848e-09 -1.70056e-08 4.2819e-09 1.96462e-09 -9.88274e-09 7.73091 5.47488 0.417314 4.28189e-09 1.96462e-09 -9.88273e-09 2.90554 0.965183 0.102902 4.2819e-09 1.96462e-09 -9.88273e-09 10.2786 0.731801 0.0259123 4.28188e-09 1.96462e-09 -9.88272e-09 2.22167 -0.733487 -0.20892 3.15545e-13 -5.40789e-14 -1.10072e-12 -2.95037 6.9329 4.3689 9.53407 -3.86295 -16.9305 1.68937 34.2181 -5.48449 9.64e-09 -8.83564e-10 -1.94768e-09 1.65772e-08 -1.45435e-09 -3.61913e-09 9.64e-09 -8.83557e-10 -1.94766e-09 -7.73091 5.47488 -0.417314 9.64e-09 -8.83559e-10 -1.94769e-09 -2.90554 0.965183 -0.102902 9.64e-09 -8.83558e-10 -1.94768e-09 -10.2786 0.731801 -0.0259123 9.64e-09 -8.83558e-10 -1.94769e-09 -2.22167 -0.733487 0.20892 -2.03217e-16 0.0 -3.88251e-19 -0.0204535 -18.8217 8.25162 -0.212822 36.2241 0.928039 -11.6266 -9.59083 -33.9518 2.03217e-16 0.0 3.88251e-19 5.53912 -39.9647 -5.52851 0.303767 36.3787 -0.365324 0.972967 -7.82446 -0.244042
38.7845 83.8597 -18.5607 -362.408 23.8393 6.8485 -0.652317 12.0565 2.23574 -0.922706 -5.08663 0.550491 -0.411509 7.14473 7.84201 17.1613 -42.9757 23.9397 -0.0 0.0 0.0 -0.0 0.0 0.0 2.72225e-13 -7.70985e-14 -9.37433e-13 2.89744 40.433 -11.9741 -9.99595 -4.13893 17.7939 -0.679254 -22.7405 -3.37702 3.63129e-09 1.52081e-09 -8.19658e-09 6.39216e-09 2.43076e-09 -1.41025e-08 3.6313e-09 1.5208e-09 -8.19659e-09 7.73091 5.47488 0.417314 3.63129e-09 1.5208e-09 -8.19658e-09 2.90554 0.965183 0.102902 3.6313e-09 1.5208e-09 -8.19658e-09 10.2786 0.731801 0.0259123 3.63128e-09 1.5208e-09 -8.19657e-09 2.22167 -0.733487 -0.20892 2.72079e-13 -7.71092e-14 -9.37795e-13 -2.89965 7.27301 4.36493 9.55594 -3.87583 -16.9712 1.64211 33.8189 -5.40169 8.05302e-09 -7.76096e-10 -1.55689e-09 1.38495e-08 -1.27983e-09 -2.90273e-09 8.05302e-09 -7.76092e-10 -1.55687e-09 -7.73091 5.47488 -0.417314 8.05302e-09 -7.76094e-10 -1.55689e-09 -2.90554 0.965183 -0.102902 8.05301e-09 -7.76093e-10 -1.55689e-09 -10.2786 0.731801 -0.0259123 8.05302e-09 -7.76092e-10 -1.55689e-09 -2.22167 -0.733487 0.20892 -2.03217e-16 0.0 -3.88251e-19 -0.315787 -18.8871 8.51436 -0.215882 36.3143 0.918323 -11.3219 -9.34952 -33.6031 2.03217e-16 0.0 3.88251e-19 5.40467 -39.9114 -5.17557 0.309213 36.7078 -0.376779 1.07334 -8.09911 0.219504
39.2363 83.8599 -18.553 -362.53 23.3388 6.9429 -0.756975 12.0763 2.39402 -0.903052 -5.15742 0.592166 -0.504212 6.69525 7.79987 17.4751 -42.2686 23.8397 -0.0 0.0 0.0 -0.0 0.0 0.0 1.66901e-13 -1.33982e-13 -5.43375e-13 2.93163 40.5207 -11.8762 -9.9885 -4.13442 17.7799 -0.688003 -22.8769 -3.39962 2.07473e-09 6.762e-10 -4.48809e-09 3.64894e-09 1.05836e-09 -7.72012e-09 2.07473e-09 6.76195e-10 -4.48811e-09 7.73091 5.47488 0.417314 2.07473e-09 6.76194e-10 -4.4881e-09 2.90554 0.965183 0.102902 2.07474e-09 6.76192e-10 -4.48809e-09 10.2786 0.731801 0.0259123 2.07472e-09 6.76195e-10 -4.48809e-09 2.22167 -0.733487 -0.20892 1.66813e-13 -1.3398e-13 -5.43657e-13 -2.79104 7.99775 4.36958 9.58159 -3.89097 -17.0191 1.56009 33.0935 -5.25408 4.3766e-09 -4.47153e-10 -8.04575e-10 7.52755e-09 -7.38373e-10 -1.50712e-09 4.37659e-09 -4.47155e-10 -8.04564e-10 -7.73091 5.47488 -0.417314 4.3766e-09 -4.47156e-10 -8.04578e-10 -2.90554 0.965183 -0.102902 4.37659e-09 -4.47157e-10 -8.04575e-10 -10.2786 0.731801 -0.0259123 4.3766e-09 -4.47154e-10 -8.04581e-10 -2.22167 -0.733487 0.20892 -2.03217e-16 0.0 -3.88251e-19 -0.60998 -19.0013 8.80204 -0.219504 36.4585 0.911872 -11.0715 -9.30009 -33.0776 2.03217e-16 0.0 3.88251e-19 5.27337 -39.8761 -4.81406 0.31481 37.0416 -0.387793 1.2039 -8.37507 0.796841
39.7202 83.8893 -18.5028 -362.551 22.7775 6.8603 -0.869415 12.0735 2.54258 -0.875416 -5.20516 0.63143 -0.601553 6.16971 7.75548 17.8054 -41.4609 23.7253 -0.0 0.0 0.0 -0.0 0.0 0.0 5.26821e-14 -1.93846e-13 -1.06579e-13 2.95638 40.5742 -11.7674 -9.98165 -4.13027 17.7671 -0.695969 -22.9997 -3.42 4.09227e-10 -2.56764e-10 -4.82358e-10 7.13441e-10 -4.59942e-10 -8.26095e-10 4.09235e-10 -2.56767e-10 -4.82374e-10 7.73091 5.47488 0.417314 4.09229e-10 -2.56767e-10 -4.82362e-10 2.90554 0.965183 0.102902 4.09239e-10 -2.56769e-10 -4.8236e-10 10.2786 0.731801 0.0259123 4.09226e-10 -2.56769e-10 -4.82357e-10 2.22167 -0.733487 -0.20892 5.26547e-14 -1.93833e-13 -1.06778e-13 -2.67527 8.7531 4.3899 9.60524 -3.90494 -17.0632 1.47942 32.3374 -5.1038 3.79074e-10 -7.91402e-11 2.67878e-11 6.53981e-10 -1.32121e-10 3.34121e-11 3.79067e-10 -7.91482e-11 2.67958e-11 -7.73091 5.47488 -0.417314 3.79071e-10 -7.91487e-11 2.67887e-11 -2.90554 0.965183 -0.102902 3.79063e-10 -7.91493e-11 2.67907e-11 -10.2786 0.731801 -0.0259123 3.79078e-10 -7.91462e-11 2.67836e-11 -2.22167 -0.733487 0.20892 -2.03217e-16 0.0 -3.88251e-19 -0.898552 -19.1689 9.08411 -0.223881 36.6376 0.905737 -10.8196 -9.26952 -32.5065 2.03217e-16 0.0 3.88251e-19 5.1551 -39.8609 -4.43968 0.320282 37.3633 -0.398169 1.33752 -8.63478 1.36546
40.22 83.922 -18.4823 -362.458 22.1128 6.8802 -0.950864 12.0436 2.64751 -0.833912 -5.21658 0.66017 -0.674424 5.75344 7.71942 18.0668 -40.8912 23.6507 -0.0 0.0 0.0 -0.0 0.0 0.0 -1.7498e-14 -2.25828e-13 1.84522e-13 2.9616 40.5636 -11.6671 -9.98187 -4.13041 17.7675 -0.699681 -23.0563 -3.42943 -5.68177e-10 -9.65651e-10 2.09556e-09 -1.01234e-09 -1.62533e-09 3.6119e-09 -5.68169e-10 -9.65651e-10 2.09554e-09 7.73091 5.47488 0.417314 -5.68176e-10 -9.65653e-10 2.09555e-09 2.90554 0.965183 0.102902 -5.68166e-10 -9.65654e-10 2.09555e-09 10.2786 0.731801 0.0259123 -5.68176e-10 -9.65654e-10 2.09555e-09 2.22167 -0.733487 -0.20892 -1.74894e-14 -2.2581e-13 1.84373e-13 -2.60308 9.18503 4.43172 9.62115 -3.91432 -17.0929 1.42964 31.8466 -5.00814 -2.17122e-09 1.45539e-10 6.54739e-10 -3.72838e-09 2.36802e-10 1.18459e-09 -2.17123e-09 1.45528e-10 6.54746e-10 -7.73091 5.47488 -0.417314 -2.17122e-09 1.45528e-10 6.54743e-10 -2.90554 0.965183 -0.102902 -2.17123e-09 1.45527e-10 6.54744e-10 -10.2786 0.731801 -0.0259123 -2.17122e-09 1.4553e-10 6.54736e-10 -2.22167 -0.733487 0.20892 -2.03217e-16 0.0 -3.88251e-19 -1.17731 -19.3944 9.32994 -0.229177 36.8328 0.89695 -10.5157 -9.08285 -32.0225 2.03217e-16 0.0 3.88251e-19 5.05983 -39.8676 -4.04803 0.325335 37.6561 -0.40769 1.44417 -8.8614 1.80243
